  0
SECTION
  2
HEADER
  9
$ACADVER
  1
AC1009
  9
$INSBASE
 10
0
 20
0
 30
0
  9
$EXTMIN
 10
0
 20
0
  9
$EXTMAX
 10
168200
 20
118800
  9
$LIMMIN
 10
0
 20
0
  9
$LIMMAX
 10
168200
 20
118800
  9
$LTSCALE
 40
200
  0
ENDSEC
  0
SECTION
  2
TABLES
  0
TABLE
  2
VPORT
  5
    1
100
AcDbSymbolTable
 70
    1
  0
VPORT
  5
    2
100
AcDbSymbolTableRecord
100
AcDbViewportTableRecord
  2
*Active
 70
    0
 10
0
 20
0
 11
1
 21
1
 12
84100
 22
59400
 13
0
 23
0
 14
10
 24
10
 15
10
 25
10
 16
0
 26
0
 36
100
 17
0
 27
0
 37
0
 40
118800
 41
1.5376
 42
50
 43
0
 44
0
 50
0
 51
0
 71
    0
 72
  100
 73
    1
 74
    3
 75
    0
 76
    0
 77
    0
 78
    0
  0
ENDTAB
  0
TABLE
  2
LTYPE
 70
     9
  0
LTYPE
  2
CONTINUOUS
 70
    64
  3
実線
 72
    65
 73
     0
 40
0.0
  0
LTYPE
  2
DASHED1
 70
    64
  3
--  --  --  --  --  --  --  --  
 72
    65
 73
     2
 40
2.5
 49
1.25
 49
-1.25
  0
LTYPE
  2
DASHED2
 70
    64
  3
----    ----    ----    ----    
 72
    65
 73
     2
 40
5.0
 49
2.5
 49
-2.5
  0
LTYPE
  2
DASHED3
 70
    64
  3
------  ------  ------  ------  
 72
    65
 73
     2
 40
5.0
 49
3.75
 49
-1.25
  0
LTYPE
  2
CENTER1
 70
    64
  3
----- - ----- - ----- - ----- - 
 72
    65
 73
     4
 40
10.0
 49
6.25
 49
-1.25
 49
1.25
 49
-1.25
  0
LTYPE
  2
CENTER2
 70
    64
  3
----------  --  ----------  --  
 72
    65
 73
     4
 40
20.0
 49
12.5
 49
-2.5
 49
2.5
 49
-2.5
  0
LTYPE
  2
PHANTOM1
 70
    64
  3
--- - - --- - - --- - - --- - - 
 72
    65
 73
     6
 40
10.0
 49
3.25
 49
-1.25
 49
1.25
 49
-1.25
 49
1.25
 49
-1.25
  0
LTYPE
  2
PHANTOM2
 70
    64
  3
--------  -  -  --------  -  -  
 72
    65
 73
     6
 40
20.0
 49
10.0
 49
-2.5
 49
1.25
 49
-2.5
 49
1.25
 49
-2.5
  0
LTYPE
  2
DOT
 70
    64
  3
-   -   -   -   -   -   -   -   
 72
    65
 73
     2
 40
2.5
 49
0.625
 49
-1.875
  0
LTYPE
  2
DUMMY
 70
    64
  3
ダミー
 72
    65
 73
     0
 40
0.0
  0
LTYPE
  2
RAND1
 70
    64
  3
ランダム線1
 72
    65
 73
     4
 40
10.0
 49
1.0
 49
-2.0
 49
3.0
 49
-4.0
  0
LTYPE
  2
RAND2
 70
    64
  3
ランダム線2
 72
    65
 73
     4
 40
14.0
 49
2.0
 49
-3.0
 49
4.0
 49
-5.0
  0
LTYPE
  2
RAND3
 70
    64
  3
ランダム線3
 72
    65
 73
     4
 40
18.0
 49
3.0
 49
-4.0
 49
5.0
 49
-6.0
  0
LTYPE
  2
RAND4
 70
    64
  3
ランダム線4
 72
    65
 73
     4
 40
22.0
 49
4.0
 49
-5.0
 49
6.0
 49
-7.0
  0
LTYPE
  2
RAND5
 70
    64
  3
ランダム線5
 72
    65
 73
     4
 40
26.0
 49
5.0
 49
-6.0
 49
7.0
 49
-8.0
  0
LTYPE
  2
LONG1
 70
    64
  3
----------  --  ----------  --  
 72
    65
 73
     4
 40
40.0
 49
32.5
 49
-2.5
 49
2.5
 49
-2.5
  0
LTYPE
  2
LONG2
 70
    64
  3
--------  -  -  --------  -  -  
 72
    65
 73
     6
 40
40.0
 49
30.0
 49
-2.5
 49
1.25
 49
-2.5
 49
1.25
 49
-2.5
  0
LTYPE
  2
LONG3
 70
    64
  3
+++++++++++++++..+++++++++++++++
 72
    65
 73
     2
 40
40.0
 49
37.5
 49
-2.5
  0
LTYPE
  2
LONG4
 70
    64
  3
+++++++++++++++..+++++++++++++++
 72
    65
 73
     2
 40
80.0
 49
75.0
 49
-5.0
  0
LTYPE
  2
LONG5
 70
    64
  3
----------  --  ----------  --  
 72
    65
 73
     4
 40
60.0
 49
37.5
 49
-7.5
 49
7.5
 49
-7.5
  0
LTYPE
  2
dashed
 70
   64
  3
-------   -------------   ------
 72
   65
 73
    2
 40
7.5
 49
6
 49
-1.5
  0
LTYPE
  2
dashed_spaced
 70
   64
  3
----        --------        ----
 72
   65
 73
    2
 40
12
 49
6
 49
-6
  0
LTYPE
  2
long_dashed_dotted
 70
   64
  3
------------- --- --------------
 72
   65
 73
    4
 40
15.25
 49
12
 49
-1.5
 49
0.25
 49
-1.5
  0
LTYPE
  2
long_dashed_double-dotted
 70
   64
  3
----------- --- --- ------------
 72
   65
 73
    6
 40
17
 49
12
 49
-1.5
 49
0.25
 49
-1.5
 49
0.25
 49
-1.5
  0
LTYPE
  2
long_dashed_triplicate-dotted
 70
   64
  3
--------- --- --- --- ----------
 72
   65
 73
    8
 40
18.75
 49
12
 49
-1.5
 49
0.25
 49
-1.5
 49
0.25
 49
-1.5
 49
0.25
 49
-1.5
  0
LTYPE
  2
dotted
 70
   64
  3
   -       -       -       -    
 72
   65
 73
    2
 40
1.75
 49
0.25
 49
-1.5
  0
LTYPE
  2
chain
 70
   64
  3
-------------- -- --------------
 72
   65
 73
    4
 40
18.5
 49
12
 49
-1.5
 49
3.5
 49
-1.5
  0
LTYPE
  2
chain_double_dash
 70
   64
  3
------------ -- -- -------------
 72
   65
 73
    6
 40
23.5
 49
12
 49
-1.5
 49
3.5
 49
-1.5
 49
3.5
 49
-1.5
  0
LTYPE
  2
dashed_dotted
 70
   64
  3
-----------     -     ----------
 72
   65
 73
    4
 40
9.25
 49
6
 49
-1.5
 49
0.25
 49
-1.5
  0
LTYPE
  2
double-dashed_dotted
 70
   64
  3
------   -----------   -   -----
 72
   65
 73
    6
 40
16.75
 49
6
 49
-1.5
 49
6
 49
-1.5
 49
0.25
 49
-1.5
  0
LTYPE
  2
dashed_double-dotted
 70
   64
  3
---------    -    -    ---------
 72
   65
 73
    6
 40
11
 49
6
 49
-1.5
 49
0.25
 49
-1.5
 49
0.25
 49
-1.5
  0
LTYPE
  2
double-dashed_double-dotted
 70
   64
  3
-----   ---------   -   -   ----
 72
   65
 73
    8
 40
18.5
 49
6
 49
-1.5
 49
6
 49
-1.5
 49
0.25
 49
-1.5
 49
0.25
 49
-1.5
  0
LTYPE
  2
dashed_triplicate-dotted
 70
   64
  3
-------    -    -    -    ------
 72
   65
 73
    8
 40
12.75
 49
6
 49
-1.5
 49
0.25
 49
-1.5
 49
0.25
 49
-1.5
 49
0.25
 49
-1.5
  0
LTYPE
  2
double-dashed_triplicate-dotted
 70
   64
  3
-----  ---------  -  -  -  -----
 72
   65
 73
   10
 40
20.25
 49
6
 49
-1.5
 49
6
 49
-1.5
 49
0.25
 49
-1.5
 49
0.25
 49
-1.5
 49
0.25
 49
-1.5
  0
LTYPE
  2
undefined
 70
   64
  3
--------------------------------
 72
   65
 73
    0
 40
0
  0
LTYPE
  2
_
 70
   64
  3
                                
 72
   65
 73
    0
 40
0
  0
LTYPE
  2
__18
 70
   64
  3
                                
 72
   65
 73
    0
 40
0
  0
LTYPE
  2
__19
 70
   64
  3
                                
 72
   65
 73
    0
 40
0
  0
LTYPE
  2
__20
 70
   64
  3
                                
 72
   65
 73
    0
 40
0
  0
LTYPE
  2
__21
 70
   64
  3
                                
 72
   65
 73
    0
 40
0
  0
LTYPE
  2
__22
 70
   64
  3
                                
 72
   65
 73
    0
 40
0
  0
LTYPE
  2
__23
 70
   64
  3
                                
 72
   65
 73
    0
 40
0
  0
LTYPE
  2
__24
 70
   64
  3
                                
 72
   65
 73
    0
 40
0
  0
LTYPE
  2
__25
 70
   64
  3
                                
 72
   65
 73
    0
 40
0
  0
LTYPE
  2
__26
 70
   64
  3
                                
 72
   65
 73
    0
 40
0
  0
LTYPE
  2
__27
 70
   64
  3
                                
 72
   65
 73
    0
 40
0
  0
LTYPE
  2
__28
 70
   64
  3
                                
 72
   65
 73
    0
 40
0
  0
LTYPE
  2
__29
 70
   64
  3
                                
 72
   65
 73
    0
 40
0
  0
LTYPE
  2
__30
 70
   64
  3
                                
 72
   65
 73
    0
 40
0
  0
LTYPE
  2
__31
 70
   64
  3
                                
 72
   65
 73
    0
 40
0
  0
LTYPE
  2
__32
 70
   64
  3
                                
 72
   65
 73
    0
 40
0
  0
ENDTAB
  0
TABLE
  2
STYLE
  5
3
100
AcDbSymbolTable
 70
     1
  0
STYLE
  5
10
100
AcDbSymbolTableRecord
100
AcDbTextStyleTableRecord
  2
STANDARD
 70
     0
 40
0.0
 41
1.0
 50
0.0
 71
     0
 42
0.2
  3
txt
  4
bigfont.shx
  0
STYLE
  5
26
100
AcDbSymbolTableRecord
100
AcDbTextStyleTableRecord
  2
TATEGAKI
 70
    68
 40
0.0
 41
1.0
 50
0.0
 71
     0
 42
1.0
  3
txt
  4
bigfont.shx
  0
ENDTAB
  0
TABLE
  2
LAYER
 70
    2
  0
LAYER
  2
_0-0__本体
 70
   64
 62
    7
  6
CONTINUOUS
  0
LAYER
  2
ADD_LINE
 70
   64
 62
    7
  6
CONTINUOUS
  0
ENDTAB
  0
ENDSEC
  0
SECTION
  2
BLOCKS
  0
ENDSEC
  0
SECTION
  2
ENTITIES
  0
LINE
  8
_0-0__基準
  6
CONTINUOUS
 62
    1
 10
64100
 20
61400
 11
104100
 21
61400
  0
LINE
  8
_0-0__基準
  6
CONTINUOUS
 62
    2
 10
64100
 20
61500
 11
104100
 21
61500
  0
LINE
  8
_0-0__基準
  6
CONTINUOUS
 62
    3
 10
64100
 20
61600
 11
104100
 21
61600
  0
LINE
  8
_0-0__基準
  6
CONTINUOUS
 62
    4
 10
64100
 20
61700
 11
104100
 21
61700
  0
LINE
  8
_0-0__基準
  6
CONTINUOUS
 62
    5
 10
64100
 20
61800
 11
104100
 21
61800
  0
LINE
  8
_0-0__基準
  6
CONTINUOUS
 62
    6
 10
64100
 20
61900
 11
104100
 21
61900
  0
LINE
  8
_0-0__基準
  6
CONTINUOUS
 62
    7
 10
64100
 20
62000
 11
104100
 21
62000
  0
LINE
  8
_0-0__基準
  6
CONTINUOUS
 62
    8
 10
64100
 20
62100
 11
104100
 21
62100
  0
LINE
  8
_0-0__基準
  6
CONTINUOUS
 62
    9
 10
64100
 20
62200
 11
104100
 21
62200
  0
LINE
  8
_0-0__基準
  6
CONTINUOUS
 62
   10
 10
64100
 20
62300
 11
104100
 21
62300
  0
LINE
  8
_0-0__基準
  6
CONTINUOUS
 62
   11
 10
64100
 20
62400
 11
104100
 21
62400
  0
LINE
  8
_0-0__基準
  6
CONTINUOUS
 62
   12
 10
64100
 20
62500
 11
104100
 21
62500
  0
LINE
  8
_0-0__基準
  6
CONTINUOUS
 62
   13
 10
64100
 20
62600
 11
104100
 21
62600
  0
LINE
  8
_0-0__基準
  6
CONTINUOUS
 62
   14
 10
64100
 20
62700
 11
104100
 21
62700
  0
LINE
  8
_0-0__基準
  6
CONTINUOUS
 62
   15
 10
64100
 20
62800
 11
104100
 21
62800
  0
LINE
  8
_0-0__基準
  6
CONTINUOUS
 62
   16
 10
64100
 20
62900
 11
104100
 21
62900
  0
LINE
  8
_0-0__基準
  6
CONTINUOUS
 62
   17
 10
64100
 20
63000
 11
104100
 21
63000
  0
LINE
  8
_0-0__基準
  6
CONTINUOUS
 62
   18
 10
64100
 20
63100
 11
104100
 21
63100
  0
LINE
  8
_0-0__基準
  6
CONTINUOUS
 62
   19
 10
64100
 20
63200
 11
104100
 21
63200
  0
LINE
  8
_0-0__基準
  6
CONTINUOUS
 62
   20
 10
64100
 20
63300
 11
104100
 21
63300
  0
LINE
  8
_0-0__基準
  6
CONTINUOUS
 62
   21
 10
64100
 20
63400
 11
104100
 21
63400
  0
LINE
  8
_0-0__基準
  6
CONTINUOUS
 62
   22
 10
64100
 20
63500
 11
104100
 21
63500
  0
LINE
  8
_0-0__基準
  6
CONTINUOUS
 62
   23
 10
64100
 20
63600
 11
104100
 21
63600
  0
LINE
  8
_0-0__基準
  6
CONTINUOUS
 62
   24
 10
64100
 20
63700
 11
104100
 21
63700
  0
LINE
  8
_0-0__基準
  6
CONTINUOUS
 62
   25
 10
64100
 20
63800
 11
104100
 21
63800
  0
LINE
  8
_0-0__基準
  6
CONTINUOUS
 62
   26
 10
64100
 20
63900
 11
104100
 21
63900
  0
LINE
  8
_0-0__基準
  6
CONTINUOUS
 62
   27
 10
64100
 20
64000
 11
104100
 21
64000
  0
LINE
  8
_0-0__基準
  6
CONTINUOUS
 62
   28
 10
64100
 20
64100
 11
104100
 21
64100
  0
LINE
  8
_0-0__基準
  6
CONTINUOUS
 62
   29
 10
64100
 20
64200
 11
104100
 21
64200
  0
LINE
  8
_0-0__基準
  6
CONTINUOUS
 62
   30
 10
64100
 20
64300
 11
104100
 21
64300
  0
LINE
  8
_0-0__基準
  6
CONTINUOUS
 62
   31
 10
64100
 20
64400
 11
104100
 21
64400
  0
LINE
  8
_0-0__基準
  6
CONTINUOUS
 62
   32
 10
64100
 20
64500
 11
104100
 21
64500
  0
LINE
  8
_0-0__基準
  6
CONTINUOUS
 62
   33
 10
64100
 20
64600
 11
104100
 21
64600
  0
LINE
  8
_0-0__基準
  6
CONTINUOUS
 62
   34
 10
64100
 20
64700
 11
104100
 21
64700
  0
LINE
  8
_0-0__基準
  6
CONTINUOUS
 62
   35
 10
64100
 20
64800
 11
104100
 21
64800
  0
LINE
  8
_0-0__基準
  6
CONTINUOUS
 62
   36
 10
64100
 20
64900
 11
104100
 21
64900
  0
LINE
  8
_0-0__基準
  6
CONTINUOUS
 62
   37
 10
64100
 20
65000
 11
104100
 21
65000
  0
LINE
  8
_0-0__基準
  6
CONTINUOUS
 62
   38
 10
64100
 20
65100
 11
104100
 21
65100
  0
LINE
  8
_0-0__基準
  6
CONTINUOUS
 62
   39
 10
64100
 20
65200
 11
104100
 21
65200
  0
LINE
  8
_0-0__基準
  6
CONTINUOUS
 62
   40
 10
64100
 20
65300
 11
104100
 21
65300
  0
LINE
  8
_0-0__基準
  6
CONTINUOUS
 62
   41
 10
64100
 20
65400
 11
104100
 21
65400
  0
LINE
  8
_0-0__基準
  6
CONTINUOUS
 62
   42
 10
64100
 20
65500
 11
104100
 21
65500
  0
LINE
  8
_0-0__基準
  6
CONTINUOUS
 62
   43
 10
64100
 20
65600
 11
104100
 21
65600
  0
LINE
  8
_0-0__基準
  6
CONTINUOUS
 62
   44
 10
64100
 20
65700
 11
104100
 21
65700
  0
LINE
  8
_0-0__基準
  6
CONTINUOUS
 62
   45
 10
64100
 20
65800
 11
104100
 21
65800
  0
LINE
  8
_0-0__基準
  6
CONTINUOUS
 62
   46
 10
64100
 20
65900
 11
104100
 21
65900
  0
LINE
  8
_0-0__基準
  6
CONTINUOUS
 62
   47
 10
64100
 20
66000
 11
104100
 21
66000
  0
LINE
  8
_0-0__基準
  6
CONTINUOUS
 62
   48
 10
64100
 20
66100
 11
104100
 21
66100
  0
LINE
  8
_0-0__基準
  6
CONTINUOUS
 62
   49
 10
64100
 20
66200
 11
104100
 21
66200
  0
LINE
  8
_0-0__基準
  6
CONTINUOUS
 62
   50
 10
64100
 20
66300
 11
104100
 21
66300
  0
LINE
  8
_0-0__基準
  6
CONTINUOUS
 62
   51
 10
64100
 20
66400
 11
104100
 21
66400
  0
LINE
  8
_0-0__基準
  6
CONTINUOUS
 62
   52
 10
64100
 20
66500
 11
104100
 21
66500
  0
LINE
  8
_0-0__基準
  6
CONTINUOUS
 62
   53
 10
64100
 20
66600
 11
104100
 21
66600
  0
LINE
  8
_0-0__基準
  6
CONTINUOUS
 62
   54
 10
64100
 20
66700
 11
104100
 21
66700
  0
LINE
  8
_0-0__基準
  6
CONTINUOUS
 62
   55
 10
64100
 20
66800
 11
104100
 21
66800
  0
LINE
  8
_0-0__基準
  6
CONTINUOUS
 62
   56
 10
64100
 20
66900
 11
104100
 21
66900
  0
LINE
  8
_0-0__基準
  6
CONTINUOUS
 62
   57
 10
64100
 20
67000
 11
104100
 21
67000
  0
LINE
  8
_0-0__基準
  6
CONTINUOUS
 62
   58
 10
64100
 20
67100
 11
104100
 21
67100
  0
LINE
  8
_0-0__基準
  6
CONTINUOUS
 62
   59
 10
64100
 20
67200
 11
104100
 21
67200
  0
LINE
  8
_0-0__基準
  6
CONTINUOUS
 62
   60
 10
64100
 20
67300
 11
104100
 21
67300
  0
LINE
  8
_0-0__基準
  6
CONTINUOUS
 62
   61
 10
64100
 20
67400
 11
104100
 21
67400
  0
LINE
  8
_0-0__基準
  6
CONTINUOUS
 62
   62
 10
64100
 20
67500
 11
104100
 21
67500
  0
LINE
  8
_0-0__基準
  6
CONTINUOUS
 62
   63
 10
64100
 20
67600
 11
104100
 21
67600
  0
LINE
  8
_0-0__基準
  6
CONTINUOUS
 62
   64
 10
64100
 20
67700
 11
104100
 21
67700
  0
LINE
  8
_0-0__基準
  6
CONTINUOUS
 62
   65
 10
64100
 20
67800
 11
104100
 21
67800
  0
LINE
  8
_0-0__基準
  6
CONTINUOUS
 62
   66
 10
64100
 20
67900
 11
104100
 21
67900
  0
LINE
  8
_0-0__基準
  6
CONTINUOUS
 62
   67
 10
64100
 20
68000
 11
104100
 21
68000
  0
LINE
  8
_0-0__基準
  6
CONTINUOUS
 62
   68
 10
64100
 20
68100
 11
104100
 21
68100
  0
LINE
  8
_0-0__基準
  6
CONTINUOUS
 62
   69
 10
64100
 20
68200
 11
104100
 21
68200
  0
LINE
  8
_0-0__基準
  6
CONTINUOUS
 62
   70
 10
64100
 20
68300
 11
104100
 21
68300
  0
LINE
  8
_0-0__基準
  6
CONTINUOUS
 62
   71
 10
64100
 20
68400
 11
104100
 21
68400
  0
LINE
  8
_0-0__基準
  6
CONTINUOUS
 62
   72
 10
64100
 20
68500
 11
104100
 21
68500
  0
LINE
  8
_0-0__基準
  6
CONTINUOUS
 62
   73
 10
64100
 20
68600
 11
104100
 21
68600
  0
LINE
  8
_0-0__基準
  6
CONTINUOUS
 62
   74
 10
64100
 20
68700
 11
104100
 21
68700
  0
LINE
  8
_0-0__基準
  6
CONTINUOUS
 62
   75
 10
64100
 20
68800
 11
104100
 21
68800
  0
LINE
  8
_0-0__基準
  6
CONTINUOUS
 62
   76
 10
64100
 20
68900
 11
104100
 21
68900
  0
LINE
  8
_0-0__基準
  6
CONTINUOUS
 62
   77
 10
64100
 20
69000
 11
104100
 21
69000
  0
LINE
  8
_0-0__基準
  6
CONTINUOUS
 62
   78
 10
64100
 20
69100
 11
104100
 21
69100
  0
LINE
  8
_0-0__基準
  6
CONTINUOUS
 62
   79
 10
64100
 20
69200
 11
104100
 21
69200
  0
LINE
  8
_0-0__基準
  6
CONTINUOUS
 62
   80
 10
64100
 20
69300
 11
104100
 21
69300
  0
LINE
  8
_0-0__基準
  6
CONTINUOUS
 62
   81
 10
64100
 20
69400
 11
104100
 21
69400
  0
LINE
  8
_0-0__基準
  6
CONTINUOUS
 62
   82
 10
64100
 20
69500
 11
104100
 21
69500
  0
LINE
  8
_0-0__基準
  6
CONTINUOUS
 62
   83
 10
64100
 20
69600
 11
104100
 21
69600
  0
LINE
  8
_0-0__基準
  6
CONTINUOUS
 62
   84
 10
64100
 20
69700
 11
104100
 21
69700
  0
LINE
  8
_0-0__基準
  6
CONTINUOUS
 62
   85
 10
64100
 20
69800
 11
104100
 21
69800
  0
LINE
  8
_0-0__基準
  6
CONTINUOUS
 62
   86
 10
64100
 20
69900
 11
104100
 21
69900
  0
LINE
  8
_0-0__基準
  6
CONTINUOUS
 62
   87
 10
64100
 20
70000
 11
104100
 21
70000
  0
LINE
  8
_0-0__基準
  6
CONTINUOUS
 62
   88
 10
64100
 20
70100
 11
104100
 21
70100
  0
LINE
  8
_0-0__基準
  6
CONTINUOUS
 62
   89
 10
64100
 20
70200
 11
104100
 21
70200
  0
LINE
  8
_0-0__基準
  6
CONTINUOUS
 62
   90
 10
64100
 20
70300
 11
104100
 21
70300
  0
LINE
  8
_0-0__基準
  6
CONTINUOUS
 62
   91
 10
64100
 20
70400
 11
104100
 21
70400
  0
LINE
  8
_0-0__基準
  6
CONTINUOUS
 62
   92
 10
64100
 20
70500
 11
104100
 21
70500
  0
LINE
  8
_0-0__基準
  6
CONTINUOUS
 62
   93
 10
64100
 20
70600
 11
104100
 21
70600
  0
LINE
  8
_0-0__基準
  6
CONTINUOUS
 62
   94
 10
64100
 20
70700
 11
104100
 21
70700
  0
LINE
  8
_0-0__基準
  6
CONTINUOUS
 62
   95
 10
64100
 20
70800
 11
104100
 21
70800
  0
LINE
  8
_0-0__基準
  6
CONTINUOUS
 62
   96
 10
64100
 20
70900
 11
104100
 21
70900
  0
LINE
  8
_0-0__基準
  6
CONTINUOUS
 62
   97
 10
64100
 20
71000
 11
104100
 21
71000
  0
LINE
  8
_0-0__基準
  6
CONTINUOUS
 62
   98
 10
64100
 20
71100
 11
104100
 21
71100
  0
LINE
  8
_0-0__基準
  6
CONTINUOUS
 62
   99
 10
64100
 20
71200
 11
104100
 21
71200
  0
LINE
  8
_0-0__基準
  6
CONTINUOUS
 62
  100
 10
64100
 20
71300
 11
104100
 21
71300
  0
LINE
  8
_0-0__基準
  6
CONTINUOUS
 62
  101
 10
64100
 20
71400
 11
104100
 21
71400
  0
LINE
  8
_0-0__基準
  6
CONTINUOUS
 62
  102
 10
64100
 20
71500
 11
104100
 21
71500
  0
LINE
  8
_0-0__基準
  6
CONTINUOUS
 62
  103
 10
64100
 20
71600
 11
104100
 21
71600
  0
LINE
  8
_0-0__基準
  6
CONTINUOUS
 62
  104
 10
64100
 20
71700
 11
104100
 21
71700
  0
LINE
  8
_0-0__基準
  6
CONTINUOUS
 62
  105
 10
64100
 20
71800
 11
104100
 21
71800
  0
LINE
  8
_0-0__基準
  6
CONTINUOUS
 62
  106
 10
64100
 20
71900
 11
104100
 21
71900
  0
LINE
  8
_0-0__基準
  6
CONTINUOUS
 62
  107
 10
64100
 20
72000
 11
104100
 21
72000
  0
LINE
  8
_0-0__基準
  6
CONTINUOUS
 62
  108
 10
64100
 20
72100
 11
104100
 21
72100
  0
LINE
  8
_0-0__基準
  6
CONTINUOUS
 62
  109
 10
64100
 20
72200
 11
104100
 21
72200
  0
LINE
  8
_0-0__基準
  6
CONTINUOUS
 62
  110
 10
64100
 20
72300
 11
104100
 21
72300
  0
LINE
  8
_0-0__基準
  6
CONTINUOUS
 62
  111
 10
64100
 20
72400
 11
104100
 21
72400
  0
LINE
  8
_0-0__基準
  6
CONTINUOUS
 62
  112
 10
64100
 20
72500
 11
104100
 21
72500
  0
LINE
  8
_0-0__基準
  6
CONTINUOUS
 62
  113
 10
64100
 20
72600
 11
104100
 21
72600
  0
LINE
  8
_0-0__基準
  6
CONTINUOUS
 62
  114
 10
64100
 20
72700
 11
104100
 21
72700
  0
LINE
  8
_0-0__基準
  6
CONTINUOUS
 62
  115
 10
64100
 20
72800
 11
104100
 21
72800
  0
LINE
  8
_0-0__基準
  6
CONTINUOUS
 62
  116
 10
64100
 20
72900
 11
104100
 21
72900
  0
LINE
  8
_0-0__基準
  6
CONTINUOUS
 62
  117
 10
64100
 20
73000
 11
104100
 21
73000
  0
LINE
  8
_0-0__基準
  6
CONTINUOUS
 62
  118
 10
64100
 20
73100
 11
104100
 21
73100
  0
LINE
  8
_0-0__基準
  6
CONTINUOUS
 62
  119
 10
64100
 20
73200
 11
104100
 21
73200
  0
LINE
  8
_0-0__基準
  6
CONTINUOUS
 62
  120
 10
64100
 20
73300
 11
104100
 21
73300
  0
LINE
  8
_0-0__基準
  6
CONTINUOUS
 62
  121
 10
64100
 20
73400
 11
104100
 21
73400
  0
LINE
  8
_0-0__基準
  6
CONTINUOUS
 62
  122
 10
64100
 20
73500
 11
104100
 21
73500
  0
LINE
  8
_0-0__基準
  6
CONTINUOUS
 62
  123
 10
64100
 20
73600
 11
104100
 21
73600
  0
LINE
  8
_0-0__基準
  6
CONTINUOUS
 62
  124
 10
64100
 20
73700
 11
104100
 21
73700
  0
LINE
  8
_0-0__基準
  6
CONTINUOUS
 62
  125
 10
64100
 20
73800
 11
104100
 21
73800
  0
LINE
  8
_0-0__基準
  6
CONTINUOUS
 62
  126
 10
64100
 20
73900
 11
104100
 21
73900
  0
LINE
  8
_0-0__基準
  6
CONTINUOUS
 62
  127
 10
64100
 20
74000
 11
104100
 21
74000
  0
LINE
  8
_0-0__基準
  6
CONTINUOUS
 62
  128
 10
64100
 20
74100
 11
104100
 21
74100
  0
ENDSEC
  0
EOF
