  0
SECTION
  2
HEADER
  9
$ACADVER
  1
AC1009
  9
$INSBASE
 10
0
 20
0
 30
0
  9
$EXTMIN
 10
0
 20
0
  9
$EXTMAX
 10
168200
 20
118800
  9
$LIMMIN
 10
0
 20
0
  9
$LIMMAX
 10
168200
 20
118800
  9
$LTSCALE
 40
200
  0
ENDSEC
  0
SECTION
  2
TABLES
  0
TABLE
  2
VPORT
  5
    1
100
AcDbSymbolTable
 70
    1
  0
VPORT
  5
    2
100
AcDbSymbolTableRecord
100
AcDbViewportTableRecord
  2
*Active
 70
    0
 10
0
 20
0
 11
1
 21
1
 12
84100
 22
59400
 13
0
 23
0
 14
10
 24
10
 15
10
 25
10
 16
0
 26
0
 36
100
 17
0
 27
0
 37
0
 40
118800
 41
1.5376
 42
50
 43
0
 44
0
 50
0
 51
0
 71
    0
 72
  100
 73
    1
 74
    3
 75
    0
 76
    0
 77
    0
 78
    0
  0
ENDTAB
  0
TABLE
  2
LTYPE
 70
     9
  0
LTYPE
  2
CONTINUOUS
 70
    64
  3
é¿ê¸
 72
    65
 73
     0
 40
0.0
  0
LTYPE
  2
DASHED1
 70
    64
  3
--  --  --  --  --  --  --  --  
 72
    65
 73
     2
 40
2.5
 49
1.25
 49
-1.25
  0
LTYPE
  2
DASHED2
 70
    64
  3
----    ----    ----    ----    
 72
    65
 73
     2
 40
5.0
 49
2.5
 49
-2.5
  0
LTYPE
  2
DASHED3
 70
    64
  3
------  ------  ------  ------  
 72
    65
 73
     2
 40
5.0
 49
3.75
 49
-1.25
  0
LTYPE
  2
CENTER1
 70
    64
  3
----- - ----- - ----- - ----- - 
 72
    65
 73
     4
 40
10.0
 49
6.25
 49
-1.25
 49
1.25
 49
-1.25
  0
LTYPE
  2
CENTER2
 70
    64
  3
----------  --  ----------  --  
 72
    65
 73
     4
 40
20.0
 49
12.5
 49
-2.5
 49
2.5
 49
-2.5
  0
LTYPE
  2
PHANTOM1
 70
    64
  3
--- - - --- - - --- - - --- - - 
 72
    65
 73
     6
 40
10.0
 49
3.25
 49
-1.25
 49
1.25
 49
-1.25
 49
1.25
 49
-1.25
  0
LTYPE
  2
PHANTOM2
 70
    64
  3
--------  -  -  --------  -  -  
 72
    65
 73
     6
 40
20.0
 49
10.0
 49
-2.5
 49
1.25
 49
-2.5
 49
1.25
 49
-2.5
  0
LTYPE
  2
DOT
 70
    64
  3
-   -   -   -   -   -   -   -   
 72
    65
 73
     2
 40
2.5
 49
0.625
 49
-1.875
  0
LTYPE
  2
DUMMY
 70
    64
  3
É_É~Å[
 72
    65
 73
     0
 40
0.0
  0
LTYPE
  2
RAND1
 70
    64
  3
ÉâÉìÉ_ÉÄê¸1
 72
    65
 73
     4
 40
10.0
 49
1.0
 49
-2.0
 49
3.0
 49
-4.0
  0
LTYPE
  2
RAND2
 70
    64
  3
ÉâÉìÉ_ÉÄê¸2
 72
    65
 73
     4
 40
14.0
 49
2.0
 49
-3.0
 49
4.0
 49
-5.0
  0
LTYPE
  2
RAND3
 70
    64
  3
ÉâÉìÉ_ÉÄê¸3
 72
    65
 73
     4
 40
18.0
 49
3.0
 49
-4.0
 49
5.0
 49
-6.0
  0
LTYPE
  2
RAND4
 70
    64
  3
ÉâÉìÉ_ÉÄê¸4
 72
    65
 73
     4
 40
22.0
 49
4.0
 49
-5.0
 49
6.0
 49
-7.0
  0
LTYPE
  2
RAND5
 70
    64
  3
ÉâÉìÉ_ÉÄê¸5
 72
    65
 73
     4
 40
26.0
 49
5.0
 49
-6.0
 49
7.0
 49
-8.0
  0
LTYPE
  2
LONG1
 70
    64
  3
----------  --  ----------  --  
 72
    65
 73
     4
 40
40.0
 49
32.5
 49
-2.5
 49
2.5
 49
-2.5
  0
LTYPE
  2
LONG2
 70
    64
  3
--------  -  -  --------  -  -  
 72
    65
 73
     6
 40
40.0
 49
30.0
 49
-2.5
 49
1.25
 49
-2.5
 49
1.25
 49
-2.5
  0
LTYPE
  2
LONG3
 70
    64
  3
+++++++++++++++..+++++++++++++++
 72
    65
 73
     2
 40
40.0
 49
37.5
 49
-2.5
  0
LTYPE
  2
LONG4
 70
    64
  3
+++++++++++++++..+++++++++++++++
 72
    65
 73
     2
 40
80.0
 49
75.0
 49
-5.0
  0
LTYPE
  2
LONG5
 70
    64
  3
----------  --  ----------  --  
 72
    65
 73
     4
 40
60.0
 49
37.5
 49
-7.5
 49
7.5
 49
-7.5
  0
LTYPE
  2
dashed
 70
   64
  3
-------   -------------   ------
 72
   65
 73
    2
 40
7.5
 49
6
 49
-1.5
  0
LTYPE
  2
dashed_spaced
 70
   64
  3
----        --------        ----
 72
   65
 73
    2
 40
12
 49
6
 49
-6
  0
LTYPE
  2
long_dashed_dotted
 70
   64
  3
------------- --- --------------
 72
   65
 73
    4
 40
15.25
 49
12
 49
-1.5
 49
0.25
 49
-1.5
  0
LTYPE
  2
long_dashed_double-dotted
 70
   64
  3
----------- --- --- ------------
 72
   65
 73
    6
 40
17
 49
12
 49
-1.5
 49
0.25
 49
-1.5
 49
0.25
 49
-1.5
  0
LTYPE
  2
long_dashed_triplicate-dotted
 70
   64
  3
--------- --- --- --- ----------
 72
   65
 73
    8
 40
18.75
 49
12
 49
-1.5
 49
0.25
 49
-1.5
 49
0.25
 49
-1.5
 49
0.25
 49
-1.5
  0
LTYPE
  2
dotted
 70
   64
  3
   -       -       -       -    
 72
   65
 73
    2
 40
1.75
 49
0.25
 49
-1.5
  0
LTYPE
  2
chain
 70
   64
  3
-------------- -- --------------
 72
   65
 73
    4
 40
18.5
 49
12
 49
-1.5
 49
3.5
 49
-1.5
  0
LTYPE
  2
chain_double_dash
 70
   64
  3
------------ -- -- -------------
 72
   65
 73
    6
 40
23.5
 49
12
 49
-1.5
 49
3.5
 49
-1.5
 49
3.5
 49
-1.5
  0
LTYPE
  2
dashed_dotted
 70
   64
  3
-----------     -     ----------
 72
   65
 73
    4
 40
9.25
 49
6
 49
-1.5
 49
0.25
 49
-1.5
  0
LTYPE
  2
double-dashed_dotted
 70
   64
  3
------   -----------   -   -----
 72
   65
 73
    6
 40
16.75
 49
6
 49
-1.5
 49
6
 49
-1.5
 49
0.25
 49
-1.5
  0
LTYPE
  2
dashed_double-dotted
 70
   64
  3
---------    -    -    ---------
 72
   65
 73
    6
 40
11
 49
6
 49
-1.5
 49
0.25
 49
-1.5
 49
0.25
 49
-1.5
  0
LTYPE
  2
double-dashed_double-dotted
 70
   64
  3
-----   ---------   -   -   ----
 72
   65
 73
    8
 40
18.5
 49
6
 49
-1.5
 49
6
 49
-1.5
 49
0.25
 49
-1.5
 49
0.25
 49
-1.5
  0
LTYPE
  2
dashed_triplicate-dotted
 70
   64
  3
-------    -    -    -    ------
 72
   65
 73
    8
 40
12.75
 49
6
 49
-1.5
 49
0.25
 49
-1.5
 49
0.25
 49
-1.5
 49
0.25
 49
-1.5
  0
LTYPE
  2
double-dashed_triplicate-dotted
 70
   64
  3
-----  ---------  -  -  -  -----
 72
   65
 73
   10
 40
20.25
 49
6
 49
-1.5
 49
6
 49
-1.5
 49
0.25
 49
-1.5
 49
0.25
 49
-1.5
 49
0.25
 49
-1.5
  0
LTYPE
  2
undefined
 70
   64
  3
--------------------------------
 72
   65
 73
    0
 40
0
  0
LTYPE
  2
_
 70
   64
  3
                                
 72
   65
 73
    0
 40
0
  0
LTYPE
  2
__18
 70
   64
  3
                                
 72
   65
 73
    0
 40
0
  0
LTYPE
  2
__19
 70
   64
  3
                                
 72
   65
 73
    0
 40
0
  0
LTYPE
  2
__20
 70
   64
  3
                                
 72
   65
 73
    0
 40
0
  0
LTYPE
  2
__21
 70
   64
  3
                                
 72
   65
 73
    0
 40
0
  0
LTYPE
  2
__22
 70
   64
  3
                                
 72
   65
 73
    0
 40
0
  0
LTYPE
  2
__23
 70
   64
  3
                                
 72
   65
 73
    0
 40
0
  0
LTYPE
  2
__24
 70
   64
  3
                                
 72
   65
 73
    0
 40
0
  0
LTYPE
  2
__25
 70
   64
  3
                                
 72
   65
 73
    0
 40
0
  0
LTYPE
  2
__26
 70
   64
  3
                                
 72
   65
 73
    0
 40
0
  0
LTYPE
  2
__27
 70
   64
  3
                                
 72
   65
 73
    0
 40
0
  0
LTYPE
  2
__28
 70
   64
  3
                                
 72
   65
 73
    0
 40
0
  0
LTYPE
  2
__29
 70
   64
  3
                                
 72
   65
 73
    0
 40
0
  0
LTYPE
  2
__30
 70
   64
  3
                                
 72
   65
 73
    0
 40
0
  0
LTYPE
  2
__31
 70
   64
  3
                                
 72
   65
 73
    0
 40
0
  0
LTYPE
  2
__32
 70
   64
  3
                                
 72
   65
 73
    0
 40
0
  0
ENDTAB
  0
TABLE
  2
STYLE
  5
3
100
AcDbSymbolTable
 70
     1
  0
STYLE
  5
10
100
AcDbSymbolTableRecord
100
AcDbTextStyleTableRecord
  2
STANDARD
 70
     0
 40
0.0
 41
1.0
 50
0.0
 71
     0
 42
0.2
  3
txt
  4
bigfont.shx
  0
STYLE
  5
26
100
AcDbSymbolTableRecord
100
AcDbTextStyleTableRecord
  2
TATEGAKI
 70
    68
 40
0.0
 41
1.0
 50
0.0
 71
     0
 42
1.0
  3
txt
  4
bigfont.shx
  0
ENDTAB
  0
TABLE
  2
LAYER
 70
    9
  0
LAYER
  2
_0-0__ñ{ëÃ
 70
   64
 62
    7
  6
CONTINUOUS
  0
LAYER
  2
_0-1_2FÕﬁ◊›¿ﬁ
 70
   64
 62
    7
  6
CONTINUOUS
  0
LAYER
  2
_0-2_3FÕﬁ◊›¿ﬁ
 70
   64
 62
    7
  6
CONTINUOUS
  0
LAYER
  2
_0-3_4FÕﬁ◊›¿ﬁ
 70
   64
 62
    7
  6
CONTINUOUS
  0
LAYER
  2
_0-4__âÆ_ç™
 70
   64
 62
    7
  6
CONTINUOUS
  0
LAYER
  2
_0-8_ñÂå^íåïî
 70
   64
 62
    7
  6
CONTINUOUS
  0
LAYER
  2
_0-9_ñÂå^è„ïî
 70
   64
 62
    7
  6
CONTINUOUS
  0
LAYER
  2
_0-a__ï˚à 
 70
   64
 62
    7
  6
CONTINUOUS
  0
LAYER
  2
ADD_LINE
 70
   64
 62
    7
  6
CONTINUOUS
  0
ENDTAB
  0
ENDSEC
  0
SECTION
  2
BLOCKS
  0
ENDSEC
  0
SECTION
  2
ENTITIES
  0
LINE
  8
_0-0__ñ{ëÃ
  6
CONTINUOUS
 62
   18
 10
56433.59268365219
 20
31301.545376575129
 11
56433.59268365219
 21
21301.545903857608
  0
LINE
  8
_0-0__ñ{ëÃ
  6
CONTINUOUS
 62
   18
 10
56433.59268365219
 20
21301.545903857608
 11
36433.593738217146
 21
21301.545903857608
  0
LINE
  8
_0-0__ñ{ëÃ
  6
CONTINUOUS
 62
   18
 10
36433.593738217146
 20
21301.545903857608
 11
36433.593738217146
 21
31301.545376575129
  0
LINE
  8
_0-0__ñ{ëÃ
  6
CONTINUOUS
 62
   18
 10
36433.593738217146
 20
31301.545376575129
 11
56433.59268365219
 21
31301.545376575129
  0
LINE
  8
_0-8_ñÂå^íåïî
  6
CONTINUOUS
 62
   18
 10
89752.119652000634
 20
21301.543426513671
 11
89752.119652000634
 21
31301.542899231189
  0
LINE
  8
_0-8_ñÂå^íåïî
  6
CONTINUOUS
 62
   18
 10
129752.11754287072
 20
31301.542899231189
 11
129752.11754287072
 21
21301.543426513671
  0
LINE
  8
_0-8_ñÂå^íåïî
  6
CONTINUOUS
 62
   18
 10
89752.119652000634
 20
31301.542899231189
 11
99752.116647374219
 21
31301.542899231189
  0
LINE
  8
_0-8_ñÂå^íåïî
  6
CONTINUOUS
 62
   18
 10
99752.116647374219
 20
21301.543426513671
 11
99752.116647374219
 21
31301.542899231189
  0
LINE
  8
_0-8_ñÂå^íåïî
  6
CONTINUOUS
 62
   18
 10
99752.116647374219
 20
21301.543426513671
 11
89752.119652000634
 21
21301.543426513671
  0
LINE
  8
_0-8_ñÂå^íåïî
  6
CONTINUOUS
 62
   18
 10
129752.11754287072
 20
21301.543426513671
 11
119752.12054749713
 21
21301.543426513671
  0
LINE
  8
_0-8_ñÂå^íåïî
  6
CONTINUOUS
 62
   18
 10
119752.12054749713
 20
31301.542899231189
 11
119752.12054749713
 21
21301.543426513671
  0
LINE
  8
_0-8_ñÂå^íåïî
  6
CONTINUOUS
 62
   18
 10
119752.12054749713
 20
31301.542899231189
 11
129752.11754287072
 21
31301.542899231189
  0
LINE
  8
_0-9_ñÂå^è„ïî
  6
CONTINUOUS
 62
   18
 10
89752.119652000634
 20
31301.542899231189
 11
89752.119652000634
 21
21301.543426513671
  0
LINE
  8
_0-1_2FÕﬁ◊›¿ﬁ
  6
CONTINUOUS
 62
   18
 10
56433.59268365219
 20
21301.545903857608
 11
56433.59268365219
 21
19301.546504782891
  0
LINE
  8
_0-1_2FÕﬁ◊›¿ﬁ
  6
CONTINUOUS
 62
   18
 10
56433.59268365219
 20
19301.546504782891
 11
36433.593738217146
 21
19301.546504782891
  0
LINE
  8
_0-1_2FÕﬁ◊›¿ﬁ
  6
CONTINUOUS
 62
   18
 10
36433.593738217146
 20
19301.546504782891
 11
36433.593738217146
 21
21301.545903857608
  0
LINE
  8
_0-1_2FÕﬁ◊›¿ﬁ
  6
CONTINUOUS
 62
   18
 10
36433.593738217146
 20
21301.545903857608
 11
56433.59268365219
 21
21301.545903857608
  0
LINE
  8
_0-2_3FÕﬁ◊›¿ﬁ
  6
CONTINUOUS
 62
   18
 10
56433.59268365219
 20
21301.545903857608
 11
56433.59268365219
 21
19301.546504782891
  0
LINE
  8
_0-2_3FÕﬁ◊›¿ﬁ
  6
CONTINUOUS
 62
   18
 10
56433.59268365219
 20
19301.546504782891
 11
36433.593738217146
 21
19301.546504782891
  0
LINE
  8
_0-2_3FÕﬁ◊›¿ﬁ
  6
CONTINUOUS
 62
   18
 10
36433.593738217146
 20
19301.546504782891
 11
36433.593738217146
 21
21301.545903857608
  0
LINE
  8
_0-2_3FÕﬁ◊›¿ﬁ
  6
CONTINUOUS
 62
   18
 10
36433.593738217146
 20
21301.545903857608
 11
56433.59268365219
 21
21301.545903857608
  0
LINE
  8
_0-3_4FÕﬁ◊›¿ﬁ
  6
CONTINUOUS
 62
   18
 10
56433.59268365219
 20
21301.545903857608
 11
56433.59268365219
 21
19301.546504782891
  0
LINE
  8
_0-3_4FÕﬁ◊›¿ﬁ
  6
CONTINUOUS
 62
   18
 10
56433.59268365219
 20
19301.546504782891
 11
36433.593738217146
 21
19301.546504782891
  0
LINE
  8
_0-3_4FÕﬁ◊›¿ﬁ
  6
CONTINUOUS
 62
   18
 10
36433.593738217146
 20
19301.546504782891
 11
36433.593738217146
 21
21301.545903857608
  0
LINE
  8
_0-3_4FÕﬁ◊›¿ﬁ
  6
CONTINUOUS
 62
   18
 10
36433.593738217146
 20
21301.545903857608
 11
56433.59268365219
 21
21301.545903857608
  0
LINE
  8
_0-a__ï˚à 
  6
CONTINUOUS
 62
   18
 10
8117.7606177606212
 20
10390.733590733589
 11
11782.522756804826
 21
31174.631046604463
  0
LINE
  8
_0-a__ï˚à 
  6
CONTINUOUS
 62
   18
 10
11782.522756804826
 20
31174.631046604463
 11
8461.1910919425099
 21
21339.122256717168
  0
LINE
  8
_0-a__ï˚à 
  6
CONTINUOUS
 62
   18
 10
8461.1910919425099
 20
21339.122256717168
 11
11611.224332831545
 21
20783.686881636102
  0
LINE
  8
_0-4__âÆ_ç™
  6
CONTINUOUS
 62
   18
 10
35933.593888448471
 20
19301.546504782891
 11
35933.593888448471
 21
31801.545226343809
  0
LINE
  8
_0-4__âÆ_ç™
  6
CONTINUOUS
 62
   18
 10
35933.593888448471
 20
31801.545226343809
 11
56933.595010764802
 21
31801.545226343809
  0
LINE
  8
_0-4__âÆ_ç™
  6
CONTINUOUS
 62
   18
 10
56933.595010764802
 20
31801.545226343809
 11
56933.595010764802
 21
19301.546504782891
  0
LINE
  8
_0-4__âÆ_ç™
  6
CONTINUOUS
 62
   18
 10
56933.595010764802
 20
19301.546504782891
 11
35933.593888448471
 21
19301.546504782891
  0
LINE
  8
_0-4__âÆ_ç™
  6
CONTINUOUS
 62
   18
 10
42183.593249228928
 20
25551.543388219415
 11
50683.593172640408
 21
25551.543388219415
  0
LINE
  8
_0-4__âÆ_ç™
  6
CONTINUOUS
 62
   18
 10
35933.593888448471
 20
31801.545226343809
 11
42183.593249228928
 21
25551.543388219415
  0
LINE
  8
_0-4__âÆ_ç™
  6
CONTINUOUS
 62
   18
 10
35933.593888448471
 20
19301.546504782891
 11
42183.593249228928
 21
25551.543388219415
  0
LINE
  8
_0-4__âÆ_ç™
  6
CONTINUOUS
 62
   18
 10
56933.595010764802
 20
31801.545226343809
 11
50683.593172640408
 21
25551.543388219415
  0
LINE
  8
_0-4__âÆ_ç™
  6
CONTINUOUS
 62
   18
 10
56933.595010764802
 20
19301.546504782891
 11
50683.593172640408
 21
25551.543388219415
  0
TEXT
  8
_0-1_2FÕﬁ◊›¿ﬁ
 62
  132
 10
56433.592477452337
 20
21301.545903857608
 40
500
 41
1
 50
180
  1
2.800,4.200
  0
TEXT
  8
_0-1_2FÕﬁ◊›¿ﬁ
 62
  132
 10
36433.593944416999
 20
21301.545903857608
 40
500
 41
1
 50
0
  1
2.800,4.200
  0
TEXT
  8
_0-1_2FÕﬁ◊›¿ﬁ
 62
  132
 10
36433.593944416999
 20
19301.546504782891
 40
500
 41
1
 50
0
  1
2.800,4.200
  0
TEXT
  8
_0-1_2FÕﬁ◊›¿ﬁ
 62
  132
 10
56433.592477452337
 20
19301.546504782891
 40
500
 41
1
 50
180
  1
2.800,4.200
  0
TEXT
  8
_0-2_3FÕﬁ◊›¿ﬁ
 62
  132
 10
56433.592477452337
 20
19301.546504782891
 40
500
 41
1
 50
180
  1
5.800,7.200
  0
TEXT
  8
_0-2_3FÕﬁ◊›¿ﬁ
 62
  132
 10
36433.593944416999
 20
19301.546504782891
 40
500
 41
1
 50
0
  1
5.800,7.200
  0
TEXT
  8
_0-2_3FÕﬁ◊›¿ﬁ
 62
  132
 10
36433.593944416999
 20
21301.545903857608
 40
500
 41
1
 50
0
  1
5.800,7.200
  0
TEXT
  8
_0-2_3FÕﬁ◊›¿ﬁ
 62
  132
 10
56433.592477452337
 20
21301.545903857608
 40
500
 41
1
 50
180
  1
5.800,7.200
  0
TEXT
  8
_0-3_4FÕﬁ◊›¿ﬁ
 62
  132
 10
56433.593134346156
 20
19301.546504782891
 40
500
 41
1
 50
180
  1
8.800,10.200
  0
TEXT
  8
_0-3_4FÕﬁ◊›¿ﬁ
 62
  132
 10
36433.593287523181
 20
19301.546504782891
 40
500
 41
1
 50
0
  1
8.800,10.200
  0
TEXT
  8
_0-3_4FÕﬁ◊›¿ﬁ
 62
  132
 10
36433.593287523181
 20
21301.545903857608
 40
500
 41
1
 50
0
  1
8.800,10.200
  0
TEXT
  8
_0-3_4FÕﬁ◊›¿ﬁ
 62
  132
 10
56433.593134346156
 20
21301.545903857608
 40
500
 41
1
 50
180
  1
8.800,10.200
  0
TEXT
  8
_0-0__ñ{ëÃ
 62
  132
 10
36433.593512870167
 20
31301.545376575129
 40
500
 41
1
 50
0
  1
11.800
  0
TEXT
  8
_0-0__ñ{ëÃ
 62
  132
 10
56433.591670327201
 20
31301.545376575129
 40
500
 41
1
 50
180
  1
11.800
  0
TEXT
  8
_0-0__ñ{ëÃ
 62
  132
 10
56433.591670327201
 20
21301.545903857608
 40
500
 41
1
 50
180
  1
11.800
  0
TEXT
  8
_0-0__ñ{ëÃ
 62
  132
 10
36433.593512870167
 20
21301.545903857608
 40
500
 41
1
 50
0
  1
11.800
  0
TEXT
  8
_0-4__âÆ_ç™
 62
  132
 10
35933.594019532669
 20
31801.545226343809
 40
500
 41
1
 50
0
  1
12.100,11.800
  0
TEXT
  8
_0-4__âÆ_ç™
 62
  132
 10
56933.595010764802
 20
31801.545095259622
 40
500
 41
1
 50
-90
  1
12.100,11.800
  0
TEXT
  8
_0-4__âÆ_ç™
 62
  132
 10
56933.596118352579
 20
19301.546504782891
 40
500
 41
1
 50
180
  1
12.100,11.800
  0
TEXT
  8
_0-4__âÆ_ç™
 62
  132
 10
35933.593888448471
 20
19301.546635867081
 40
500
 41
1
 50
90
  1
12.100,11.800
  0
TEXT
  8
_0-4__âÆ_ç™
 62
  132
 10
42183.593605660105
 20
25551.543388219415
 40
500
 41
1
 50
0
  1
-14.000
  0
TEXT
  8
_0-4__âÆ_ç™
 62
  132
 10
50683.592816209238
 20
25551.543388219415
 40
500
 41
1
 50
180
  1
-14.000
  0
LINE
  8
_0-9_ñÂå^è„ïî
  6
CONTINUOUS
 62
   18
 10
89752.119652000634
 20
21301.543426513671
 11
119752.12054749713
 21
21301.543426513671
  0
LINE
  8
_0-9_ñÂå^è„ïî
  6
CONTINUOUS
 62
   18
 10
119752.12054749713
 20
21301.543426513671
 11
119752.12054749713
 21
31301.542899231189
  0
LINE
  8
_0-9_ñÂå^è„ïî
  6
CONTINUOUS
 62
   18
 10
119752.12054749713
 20
31301.542899231189
 11
89752.119652000634
 21
31301.542899231189
  0
TEXT
  8
_0-8_ñÂå^íåïî
 62
   52
 10
119752.12054749713
 20
31301.542899231189
 40
500
 41
1
 50
0
  1
20.000
  0
TEXT
  8
_0-8_ñÂå^íåïî
 62
   52
 10
119752.12054749713
 20
21301.543426513671
 40
500
 41
1
 50
0
  1
20.000
  0
LINE
  8
_0-8_ñÂå^íåïî
  6
CONTINUOUS
 62
   18
 10
134752.11754287072
 20
31301.542899231189
 11
134752.11754287072
 21
21301.543426513671
  0
TEXT
  8
_0-8_ñÂå^íåïî
 62
   52
 10
129752.11754287072
 20
31301.542899231189
 40
500
 41
1
 50
-90
  1
20.000
  0
TEXT
  8
_0-8_ñÂå^íåïî
 62
   52
 10
129752.11754287072
 20
21301.543426513671
 40
500
 41
1
 50
90
  1
20.000
  0
TEXT
  8
_0-a__ï˚à 
 62
  212
 10
11782.522756804826
 20
31174.631046604463
 40
500
 41
1
 50
-100.00000067721585
  1
-10.000001
  0
TEXT
  8
_0-a__ï˚à 
 62
  212
 10
11324.848519186354
 20
31458.416691449918
 40
500
 41
1
 50
-10.000000677215895
  1
ê^ñk
  0
TEXT
  8
_0-9_ñÂå^è„ïî
 62
   52
 10
119752.12054749713
 20
31301.542899231189
 40
500
 41
1
 50
180
  1
15.000 , 20.000
  0
TEXT
  8
_0-9_ñÂå^è„ïî
 62
   52
 10
119752.12054749713
 20
21301.543426513671
 40
500
 41
1
 50
180
  1
15.000 , 20.000
  0
TEXT
  8
_0-9_ñÂå^è„ïî
 62
   52
 10
89752.119652000634
 20
31301.542899231189
 40
500
 41
1
 50
0
  1
15.000 , 20.000
  0
TEXT
  8
_0-9_ñÂå^è„ïî
 62
   52
 10
89752.119652000634
 20
21301.543426513671
 40
500
 41
1
 50
0
  1
15.000 , 20.000
  0
TEXT
  8
_0-8_ñÂå^íåïî
 62
   52
 10
99752.116647374219
 20
31301.542899231189
 40
500
 41
1
 50
180
  1
15.000
  0
TEXT
  8
_0-8_ñÂå^íåïî
 62
   52
 10
89752.119652000634
 20
31301.542899231189
 40
500
 41
1
 50
0
  1
15.000
  0
TEXT
  8
_0-8_ñÂå^íåïî
 62
   52
 10
89752.119652000634
 20
21301.543426513671
 40
500
 41
1
 50
0
  1
15.000
  0
TEXT
  8
_0-8_ñÂå^íåïî
 62
   52
 10
99752.116647374219
 20
21301.543426513671
 40
500
 41
1
 50
180
  1
15.000
  0
LINE
  8
_0-8_ñÂå^íåïî
  6
CONTINUOUS
 62
   18
 10
133752.11754287072
 20
31301.542899231189
 11
133752.11754287072
 21
21301.543426513671
  0
TEXT
  8
_0-8_ñÂå^íåïî
 62
   52
 10
133752.11754287072
 20
31301.542899231189
 40
500
 41
1
 50
-90
  1
4.000
  0
TEXT
  8
_0-8_ñÂå^íåïî
 62
   52
 10
133752.11754287072
 20
21301.543426513671
 40
500
 41
1
 50
90
  1
4.000
  0
TEXT
  8
_0-8_ñÂå^íåïî
 62
   52
 10
134752.11754287072
 20
31301.542899231189
 40
500
 41
1
 50
-90
  1
0.000
  0
TEXT
  8
_0-8_ñÂå^íåïî
 62
   52
 10
134752.11754287072
 20
21301.543426513671
 40
500
 41
1
 50
90
  1
0.000
  0
LINE
  8
_0-8_ñÂå^íåïî
  6
CONTINUOUS
 62
   18
 10
129752.11754287072
 20
21301.543426513671
 11
133752.11754287072
 21
21301.543426513671
  0
LINE
  8
_0-8_ñÂå^íåïî
  6
CONTINUOUS
 62
   18
 10
133752.11754287072
 20
21301.543426513671
 11
134752.11754287072
 21
21301.543426513671
  0
LINE
  8
_0-8_ñÂå^íåïî
  6
CONTINUOUS
 62
   18
 10
129752.11754287072
 20
31301.542899231189
 11
133752.11754287072
 21
31301.542899231189
  0
LINE
  8
_0-8_ñÂå^íåïî
  6
CONTINUOUS
 62
   18
 10
133752.11754287072
 20
31301.542899231189
 11
134752.11754287072
 21
31301.542899231189
  0
TEXT
  8
_0-8_ñÂå^íåïî
 62
  132
 10
28506.469760900141
 20
10193.811533052035
 40
4000
 41
1
 50
0
  1
Ç◊ÉâÉìÉ_ÇÃÇ†ÇÈÉfÅ[É^
  0
TEXT
  8
_0-8_ñÂå^íåïî
 62
  132
 10
98530.661040787614
 20
5225.8790436005601
 40
4000
 41
1
 50
0
  1
Åië™íËñ ÇSÇçÅj
  0
TEXT
  8
_0-8_ñÂå^íåïî
 62
  132
 10
85519.40928270042
 20
10193.811533052041
 40
4000
 41
1
 50
0
  1
ñÂå^ÉfÅ[É^ÅEéŒï«ÇÃÇ†ÇÈÉfÅ[É^
  0
ENDSEC
  0
EOF
